HIERARCHY
ROOT hip
{
	OFFSET 0.000000 0.000000 0.000000 
	CHANNELS 6 Xposition Yposition Zposition Xrotation Zrotation Yrotation
	JOINT abdomen
	{
		OFFSET 0.000000 3.402643 0.000000 
		CHANNELS 3 Xrotation Zrotation Yrotation
		JOINT chest
		{
			OFFSET 0.000000 8.438565 -0.680529 
			CHANNELS 3 Xrotation Zrotation Yrotation
			JOINT neck
			{
				OFFSET 0.000000 10.207942 -0.272212 
				CHANNELS 3 Xrotation Zrotation Yrotation
				JOINT head
				{
					OFFSET 0.000000 3.130431 0.000000 
					CHANNELS 3 Xrotation Zrotation Yrotation
					End Site
					{
						OFFSET 0.000000 3.130435 0.000000 
					}
				}
			}
			JOINT lCollar
			{
				OFFSET 3.470700 6.669187 -0.816635 
				CHANNELS 3 Yrotation Zrotation Xrotation
				JOINT lShldr
				{
					OFFSET 3.198488 0.000000 0.000000 
					CHANNELS 3 Zrotation Yrotation Xrotation
					JOINT lForeArm
					{
						OFFSET 10.139888 0.000000 0.000000 
						CHANNELS 3 Yrotation Zrotation Xrotation
						JOINT lHand
						{
							OFFSET 8.370511 0.000000 0.000000 
							CHANNELS 3 Zrotation Yrotation Xrotation
							End Site
							{
								OFFSET 4.083176 0.000000 0.000000 
							}
						}
					}
				}
			}
			JOINT rCollar
			{
				OFFSET -3.470700 6.669187 -0.816635 
				CHANNELS 3 Yrotation Zrotation Xrotation
				JOINT rShldr
				{
					OFFSET -3.198488 0.000000 0.000000 
					CHANNELS 3 Zrotation Yrotation Xrotation
					JOINT rForeArm
					{
						OFFSET -10.139888 0.000000 0.000000 
						CHANNELS 3 Yrotation Zrotation Xrotation
						JOINT rHand
						{
							OFFSET -8.370511 0.000000 0.000000 
							CHANNELS 3 Zrotation Yrotation Xrotation
							End Site
							{
								OFFSET -4.083176 0.000000 0.000000 
							}
						}
					}
				}
			}
		}
	}
	JOINT lThigh
	{
		OFFSET 5.308129 -1.633274 1.361059 
		CHANNELS 3 Xrotation Zrotation Yrotation
		JOINT lShin
		{
			OFFSET -2.041588 -20.007561 0.000000 
			CHANNELS 3 Xrotation Zrotation Yrotation
			JOINT lFoot
			{
				OFFSET 0.000000 -19.190928 -1.224953 
				CHANNELS 3 Xrotation Yrotation Zrotation
				End Site
				{
					OFFSET 0.000000 -2.449906 4.627600 
				}
			}
		}
	}
	JOINT rThigh
	{
		OFFSET -5.308129 -1.633274 1.361059 
		CHANNELS 3 Xrotation Zrotation Yrotation
		JOINT rShin
		{
			OFFSET 2.041588 -20.007561 0.000000 
			CHANNELS 3 Xrotation Zrotation Yrotation
			JOINT rFoot
			{
				OFFSET 0.000000 -19.190928 -1.224953 
				CHANNELS 3 Xrotation Yrotation Zrotation
				End Site
				{
					OFFSET 0.000000 -2.449906 4.627600 
				}
			}
		}
	}
}
MOTION
Frames: 13
Frame Time: 0.011111
37.662746 51.456547 -124.408295 -7.502214 -2.401864 -40.099514 35.086956 -9.905824 -4.382361 -24.803324 4.085097 0.082721 -10.399148 -13.370123 -6.094697 42.520332 34.709217 -2.431450 2.323164 -4.228199 1.777795 -69.689392 -31.907202 18.896646 -40.117332 4.782924 4.428619 8.524705 12.647240 -56.673225 -4.757854 4.715322 2.362459 76.795631 31.978748 7.708303 41.690300 -5.344260 5.000710 -8.534408 -12.637552 15.277204 -0.526298 -2.008048 1.811975 38.552341 -4.800804 -5.914301 -36.867069 1.641820 0.657836 -19.627481 -11.298437 13.698843 45.683907 4.172584 6.731501 -25.294901 4.341218 4.268592 
37.601643 51.633060 -124.295044 -7.426488 -2.249981 -40.461052 34.709278 -10.014400 -4.314396 -24.744659 4.106066 0.104775 -10.370057 -12.873803 -5.753404 42.118046 33.315735 -2.230096 2.323164 -4.228199 1.777795 -69.676483 -31.760885 18.637356 -40.501587 4.914763 4.558218 8.524705 12.647240 -55.755260 -4.757854 4.715322 2.362459 76.675034 31.721308 7.918898 41.751442 -5.366406 5.024085 -8.534408 -12.637552 15.951031 0.048404 -2.321151 1.281151 37.482178 -4.878582 -5.797125 -37.020500 2.319495 1.167339 -20.316605 -11.062889 13.497828 46.235382 4.123695 6.787611 -25.571459 3.430383 3.817700 
37.541466 51.676270 -124.313255 -7.381087 -2.231454 -40.331539 34.992081 -9.992908 -4.535565 -25.048765 4.230495 0.042931 -10.541710 -12.640402 -5.579078 41.810352 32.467468 -2.239292 2.323164 -4.228199 1.777795 -69.475601 -31.656376 19.306295 -40.319431 4.851897 4.497020 8.524705 12.647240 -56.272839 -4.757854 4.715322 2.362459 76.672890 31.564831 7.386791 41.771160 -5.363663 5.016755 -8.534408 -12.637552 15.833842 -0.019566 -2.166738 1.365664 37.541603 -4.878742 -5.792669 -36.947304 2.235460 1.084647 -20.376364 -10.623793 13.050570 46.392567 4.113909 6.806705 -25.804245 2.674812 3.417315 
37.464317 51.597267 -124.335167 -7.401101 -2.183991 -40.220287 35.120453 -10.054790 -4.676017 -24.980267 4.237668 0.017951 -10.715071 -12.469720 -5.374643 40.607132 32.048237 -2.258239 2.323164 -4.228199 1.777795 -69.172028 -31.885403 19.972507 -40.167908 4.800074 4.443233 8.524705 12.647240 -56.311901 -4.757854 4.715322 2.362459 76.753632 31.570063 7.262804 41.842663 -5.391933 5.047886 -8.534408 -12.637552 15.921733 -0.019413 -2.083529 1.448916 37.492039 -4.878521 -5.797968 -36.739746 2.295138 1.067525 -20.148491 -10.300852 12.673775 46.481422 4.094348 6.825657 -25.911110 3.171024 3.672778 
37.384396 51.471363 -124.334862 -7.600313 -1.990152 -40.062378 35.234474 -10.321753 -4.952652 -24.980915 4.371381 -0.023644 -11.873455 -12.415459 -5.111171 41.722141 31.274729 -1.980119 2.323164 -4.228199 1.777795 -69.163658 -31.963659 19.659761 -39.955376 4.724677 4.376830 8.524705 12.647240 -57.132214 -4.757854 4.715322 2.362459 76.699265 31.387182 7.471045 41.975365 -5.442036 5.103580 -8.534408 -12.637552 16.273294 0.049249 -2.246732 1.657715 37.660538 -4.868957 -5.809606 -36.585758 2.058866 0.894906 -19.771343 -10.360229 11.989305 46.461838 4.104176 6.808632 -25.699280 3.957791 4.071765 
37.312798 51.472599 -124.285164 -7.564040 -1.917266 -39.920681 35.091232 -10.169330 -4.986549 -24.971025 4.349426 -0.050424 -11.248318 -12.485837 -4.923366 40.431385 30.994637 -1.821204 2.323164 -4.228199 1.777795 -69.312729 -31.961512 18.647810 -39.904552 4.699278 4.346375 8.524705 12.647240 -58.265026 -4.757854 4.715322 2.362459 76.569000 31.130285 7.568908 42.097126 -5.478450 5.144346 -8.534408 -12.637552 16.517437 -0.038898 -2.242091 1.665970 37.908878 -4.839955 -5.850973 -36.692924 1.851281 0.764751 -19.611082 -10.163872 11.503551 46.334080 4.113791 6.791985 -25.767294 4.235487 4.203318 
37.227936 51.517651 -124.207390 -7.536038 -1.866129 -39.974884 34.887665 -10.074247 -5.120809 -24.794867 4.373940 -0.097152 -11.819849 -12.162090 -4.616844 40.451733 29.858927 -1.638627 2.323164 -4.228199 1.777795 -69.305740 -32.108120 18.051846 -40.056488 4.759184 4.405862 8.524705 12.647240 -57.688858 -4.757854 4.715322 2.362459 76.459328 31.009237 7.872620 42.127838 -5.489030 5.151324 -8.534408 -12.637552 16.615093 -0.068472 -2.292737 1.567881 38.146297 -4.829939 -5.869083 -37.085075 1.796465 0.812903 -19.511038 -9.911895 11.432460 46.146484 4.133408 6.783977 -25.528044 4.720723 4.442876 
37.139061 51.454388 -124.220055 -7.422501 -1.786177 -39.778179 34.852032 -10.104081 -5.209111 -24.667150 4.284194 -0.109654 -12.198278 -11.635591 -4.528248 40.010597 28.931377 -1.865386 2.323164 -4.228199 1.777795 -68.995270 -32.493492 17.961330 -40.086788 4.771360 4.421699 8.524705 12.647240 -57.093147 -4.757854 4.715322 2.362459 76.715904 31.082846 7.242468 42.086754 -5.472305 5.136604 -8.534408 -12.637552 16.204939 -0.311890 -2.056418 1.946829 38.363945 -4.810569 -5.910814 -36.938755 1.543308 0.614655 -19.207830 -9.599252 10.923301 45.881065 4.153083 6.749933 -25.467157 4.811030 4.498165 
37.053272 51.402241 -124.213890 -7.068843 -1.945429 -39.682697 34.680454 -9.757949 -5.175700 -24.922318 4.397957 -0.168437 -11.528831 -11.304125 -4.463719 39.174541 27.985916 -1.992996 2.323164 -4.228199 1.777795 -69.053352 -32.414524 16.888578 -39.793736 4.665437 4.315678 8.524705 12.647240 -58.479874 -4.757854 4.715322 2.362459 76.600883 30.629362 7.131544 42.137585 -5.487925 5.152553 -8.534408 -12.637552 16.195171 -0.622617 -1.547321 2.043239 38.562176 -4.800828 -5.915171 -36.871372 1.519612 0.582033 -18.844738 -8.837112 10.728461 45.604782 4.182320 6.727933 -25.509588 4.670203 4.408153 
36.964088 51.395142 -124.170685 -7.039525 -1.991932 -39.595787 34.615356 -9.676036 -4.964962 -24.705578 4.108911 -0.098413 -11.409861 -11.080545 -4.506585 38.533794 27.525276 -2.316846 2.323164 -4.228199 1.777795 -68.743385 -32.829144 16.548719 -39.440182 4.533908 4.189489 8.524705 12.647240 -59.554085 -4.757854 4.715322 2.362459 76.772507 30.512016 7.099213 42.260014 -5.531275 5.201029 -8.534408 -12.637552 16.585796 -0.611996 -1.439747 1.980060 38.720703 -4.781219 -5.952222 -37.006660 1.552706 0.635674 -18.487885 -8.347987 11.165833 45.339111 4.208915 6.686786 -25.480478 4.608406 4.399576 
36.866573 51.383419 -124.112984 -7.233070 -1.915594 -39.410961 34.751457 -9.787717 -5.223124 -24.833275 4.202762 -0.154519 -11.765240 -10.932856 -4.351270 38.926945 26.842119 -2.188197 2.323164 -4.228199 1.777795 -68.685089 -32.898342 16.215225 -39.309010 4.485956 4.145813 8.524705 12.647240 -59.788456 -4.757854 4.715322 2.362459 76.711487 30.104431 7.591080 42.412590 -5.577601 5.250267 -8.534408 -12.637552 17.581890 -0.319980 -1.690187 1.489795 38.730545 -4.781233 -5.953086 -37.360184 1.471051 0.671323 -18.057604 -8.142683 11.812364 45.143066 4.211692 6.661434 -25.746008 4.294612 4.230116 
36.760109 51.388348 -124.115128 -7.352509 -1.758249 -39.004330 34.859627 -9.929461 -5.505148 -24.793797 4.129922 -0.204442 -12.103103 -10.792515 -4.248734 39.204826 26.550369 -2.052824 2.323164 -4.228199 1.777795 -68.356812 -33.401066 16.138554 -39.066776 4.395196 4.066648 8.524705 12.647240 -59.524792 -4.757854 4.715322 2.362459 76.897156 29.907974 7.915946 42.535763 -5.627599 5.304835 -8.534408 -12.637552 18.460794 -0.136018 -1.760630 1.342230 38.582535 -4.791073 -5.923395 -37.183094 1.207416 0.439708 -17.759516 -7.958282 12.588435 45.034325 4.228264 6.649005 -26.069479 3.543581 3.872150 
36.647781 51.405018 -124.065758 -7.382970 -1.660149 -38.939873 34.637115 -9.965651 -5.584774 -24.842916 4.167050 -0.230662 -11.921227 -10.847226 -4.131696 39.141708 26.218361 -1.888562 2.323164 -4.228199 1.777795 -68.269409 -33.509716 15.941040 -38.986145 4.364551 4.037452 8.524705 12.647240 -58.724014 -4.757854 4.715322 2.362459 76.777328 29.513521 7.443962 42.453716 -5.594099 5.265183 -8.534408 -12.637552 17.718605 0.068357 -1.770750 1.392806 38.443035 -4.810569 -5.908013 -37.105534 1.190215 0.412472 -17.515226 -7.714208 13.535947 44.945992 4.238147 6.625968 -25.661697 2.830250 3.537508 
